<svg xmlns="http://www.w3.org/2000/svg" width="90" height="47.727" viewBox="0 0 90 47.727">
  <g id="Group_10259" data-name="Group 10259" transform="translate(0 -120.242)">
    <path id="Path_8818" data-name="Path 8818" d="M83.046,120.242H6.955A6.963,6.963,0,0,0,0,127.2v33.818a6.963,6.963,0,0,0,6.955,6.955H83.045A6.963,6.963,0,0,0,90,161.015V127.2A6.962,6.962,0,0,0,83.046,120.242Zm4.318,40.773a4.323,4.323,0,0,1-4.318,4.318H6.955a4.323,4.323,0,0,1-4.318-4.318V127.2a4.323,4.323,0,0,1,4.318-4.318H83.045a4.323,4.323,0,0,1,4.318,4.318v33.818Z" transform="translate(0 0)" fill="#acacac"/>
    <path id="Path_8819" data-name="Path 8819" d="M109.473,152.306h-15.5a1.318,1.318,0,1,0,0,2.637h2.839c-1.97,2.754-3.249,4.43-4,5.407-1.154,1.511-1.464,1.917-1.224,2.7a1.414,1.414,0,0,0,.922.929c.183.061.433.144,3.969.144,1.422,0,3.376-.014,6.07-.047a1.318,1.318,0,0,0-.033-2.637c-2.269.028-5.255.05-7.249.041.939-1.233,2.473-3.274,4.774-6.536h8.109v31.181h-4.977a6.212,6.212,0,0,0-2.279-3.73,6.2,6.2,0,1,0-9.908-6.09,1.318,1.318,0,0,0,2.587.508,3.57,3.57,0,1,1,3.5,4.263,1.318,1.318,0,0,0,0,2.637,3.573,3.573,0,0,1,3.373,2.412H85.428V154.943h2.909a1.318,1.318,0,1,0,0-2.637H33.382a1.318,1.318,0,0,0-1.318,1.318v33.818a1.318,1.318,0,0,0,1.318,1.318H37.61a1.318,1.318,0,1,0,0-2.637H34.7V154.943H57.428v31.181H43.246a1.318,1.318,0,0,0,0,2.637h66.227a1.318,1.318,0,0,0,1.318-1.318V153.624a1.318,1.318,0,0,0-1.318-1.318Zm-49.409,2.637H82.791v31.181H60.064Z" transform="translate(-26.428 -26.428)" fill="#acacac"/>
    <path id="Path_8820" data-name="Path 8820" d="M106.713,193.22h-4.029a1.318,1.318,0,1,0,0,2.637h2.71v17.531a1.318,1.318,0,0,0,2.637,0V194.538a1.318,1.318,0,0,0-1.318-1.318Zm-20.222,15.1V199.6a6.769,6.769,0,0,0-13.538,0v8.717a6.769,6.769,0,1,0,13.538,0Zm-10.9,0V199.6a4.132,4.132,0,0,1,8.265,0v8.717a4.132,4.132,0,1,1-8.265,0Z" transform="translate(-60.129 -59.832)" fill="#acacac"/>
  </g>
</svg>
