<svg xmlns="http://www.w3.org/2000/svg" width="74" height="74" viewBox="0 0 74 74">
  <g id="Group_10248" data-name="Group 10248" transform="translate(-418 -234)">
    <circle id="Ellipse_536" data-name="Ellipse 536" cx="37" cy="37" r="37" transform="translate(418 234)"/>
    <path id="Icon_awesome-arrow-down" data-name="Icon awesome-arrow-down" d="M28.26,19.643l1.518,1.518a1.634,1.634,0,0,1,0,2.318L16.491,36.773a1.634,1.634,0,0,1-2.318,0L.879,23.479a1.634,1.634,0,0,1,0-2.318L2.4,19.643a1.643,1.643,0,0,1,2.346.027l7.85,8.24V3.891A1.637,1.637,0,0,1,14.235,2.25h2.188a1.637,1.637,0,0,1,1.641,1.641V27.911l7.85-8.24A1.631,1.631,0,0,1,28.26,19.643Z" transform="translate(439.672 248.745)" fill="#f84018"/>
  </g>
</svg>
