<svg xmlns="http://www.w3.org/2000/svg" width="74" height="74" viewBox="0 0 74 74">
  <g id="Group_10248" data-name="Group 10248" transform="translate(-418 -234)">
    <circle id="Ellipse_536" data-name="Ellipse 536" cx="37" cy="37" r="37" transform="translate(418 234)"/>
    <path id="Icon_awesome-arrow-down" data-name="Icon awesome-arrow-down" d="M28.26,19.862l1.518-1.518a1.634,1.634,0,0,0,0-2.318L16.491,2.732a1.634,1.634,0,0,0-2.318,0L.879,16.026a1.634,1.634,0,0,0,0,2.318L2.4,19.862a1.643,1.643,0,0,0,2.346-.027l7.85-8.24v24.02a1.637,1.637,0,0,0,1.641,1.641h2.188a1.637,1.637,0,0,0,1.641-1.641V11.595l7.85,8.24A1.631,1.631,0,0,0,28.26,19.862Z" transform="translate(439.672 248.745)" fill="#b3f776"/>
  </g>
</svg>
