<svg xmlns="http://www.w3.org/2000/svg" width="75.002" height="90" viewBox="0 0 75.002 90">
  <g id="Group_10250" data-name="Group 10250" transform="translate(-4.999 -0.002)">
    <path id="Path_8788" data-name="Path 8788" d="M11.055,89.949,73.938,90a6,6,0,0,0,5.282-3.063,5.85,5.85,0,0,0-.076-5.967L62.706,53.456c.234-.249.47-.471.7-.74l5.276,1.512A2.582,2.582,0,0,0,71.6,53.137c.3-.45,1.307-2.181,1.535-2.625a2.6,2.6,0,0,0-.5-3.128L68.7,43.613a27.765,27.765,0,0,0,.993-3.707l5.352-1.319A2.63,2.63,0,0,0,77,36.2c.017-.269.018-.98.018-1.706s0-1.439-.017-1.67a2.654,2.654,0,0,0-2.01-2.442l-5.3-1.307a27.734,27.734,0,0,0-.993-3.705L72.632,21.6a2.591,2.591,0,0,0,.521-3.095q-.718-1.314-1.508-2.586a2.61,2.61,0,0,0-2.969-1.164l-5.268,1.512a25.922,25.922,0,0,0-2.724-2.711l1.511-5.25a2.624,2.624,0,0,0-1.133-2.948q-1.28-.766-2.588-1.485a2.612,2.612,0,0,0-3.137.494l-3.8,3.915a26.662,26.662,0,0,0-3.728-.993L46.47,1.949A2.637,2.637,0,0,0,44.036.011Q42.519-.007,41,.011A2.651,2.651,0,0,0,38.56,2L37.241,7.289a26.632,26.632,0,0,0-3.728.993l-3.8-3.912a2.606,2.606,0,0,0-3.107-.518c-.483.249-2.183,1.238-2.655,1.524a2.616,2.616,0,0,0-1.1,2.937l1.508,5.237a25.961,25.961,0,0,0-2.723,2.712l-5.271-1.514a2.574,2.574,0,0,0-2.913,1.089q-.808,1.292-1.538,2.63a2.6,2.6,0,0,0,.5,3.132l3.93,3.773a27.782,27.782,0,0,0-.993,3.7L10,30.39A2.621,2.621,0,0,0,8.04,32.783c-.015.269-.017.98-.017,1.707s0,1.437.014,1.664A2.652,2.652,0,0,0,10.048,38.6l5.3,1.3a27.878,27.878,0,0,0,.993,3.707l-3.927,3.776a2.585,2.585,0,0,0-.516,3.093c.254.491,1.257,2.217,1.508,2.589a2.6,2.6,0,0,0,2.967,1.161l5.268-1.509c.231.267.45.515.681.75L5.863,80.907a5.85,5.85,0,0,0-.09,5.97,5.988,5.988,0,0,0,5.282,3.072ZM23.742,50.56a2.675,2.675,0,0,0-2.7-.791l-5.22,1.5q-.573-.949-1.116-1.916l3.926-3.768a2.658,2.658,0,0,0,.621-2.765,24.63,24.63,0,0,1-.992-3.671,2.673,2.673,0,0,0-1.959-2.1l-5.274-1.3V33.225l5.316-1.311a2.649,2.649,0,0,0,1.913-2.064,24.649,24.649,0,0,1,.99-3.69,2.669,2.669,0,0,0-.645-2.784l-3.9-3.75c.273-.492.8-1.4,1.118-1.914l5.235,1.5a2.7,2.7,0,0,0,2.723-.833,23.387,23.387,0,0,1,2.75-2.729,2.657,2.657,0,0,0,.792-2.7l-1.5-5.2c.506-.3,1.407-.821,1.928-1.109l3.788,3.9a2.684,2.684,0,0,0,2.757.639,24.029,24.029,0,0,1,3.75-1A2.7,2.7,0,0,0,40.1,8.249L41.405,3h2.238l1.323,5.292A2.7,2.7,0,0,0,47.046,10.2a23.757,23.757,0,0,1,3.75,1,2.675,2.675,0,0,0,2.739-.669l3.771-3.885c.5.279,1.436.821,1.926,1.109l-1.5,5.205a2.67,2.67,0,0,0,.839,2.73A23.321,23.321,0,0,1,61.3,18.415a2.684,2.684,0,0,0,2.709.794l5.22-1.5c.285.462.824,1.389,1.116,1.914L66.423,23.4a2.664,2.664,0,0,0-.621,2.765,24.5,24.5,0,0,1,.984,3.665,2.678,2.678,0,0,0,1.959,2.1l5.276,1.3v2.526L68.7,37.065a2.654,2.654,0,0,0-1.914,2.067,24.425,24.425,0,0,1-.99,3.69,2.678,2.678,0,0,0,.645,2.786l3.9,3.75c-.272.491-.8,1.4-1.118,1.916L64,49.774a2.676,2.676,0,0,0-2.729.836c-.055.066-.108.12-.162.183l-2.867-4.8a19.5,19.5,0,1,0-31.453.036l-2.85,4.755c-.066-.083-.126-.143-.194-.224Zm4.746-7.371a16.5,16.5,0,1,1,28.051-.045L47.752,28.432a6.079,6.079,0,0,0-10.4,0ZM8.433,82.455,39.92,29.964a3.079,3.079,0,0,1,5.252.014l31.4,52.538a2.889,2.889,0,0,1,.039,2.946A3.027,3.027,0,0,1,73.944,87l-62.886-.052A3.029,3.029,0,0,1,8.386,85.4a2.888,2.888,0,0,1,.047-2.949Z" fill="#e00909"/>
    <path id="Path_8789" data-name="Path 8789" d="M31.5,55A4.5,4.5,0,0,0,36,50.5v-18a4.5,4.5,0,0,0-9,0v18A4.5,4.5,0,0,0,31.5,55ZM30,32.5a1.5,1.5,0,0,1,3,0v18a1.5,1.5,0,0,1-3,0ZM31.5,67A4.5,4.5,0,1,0,27,62.5,4.5,4.5,0,0,0,31.5,67Zm0-6A1.5,1.5,0,1,1,30,62.5,1.5,1.5,0,0,1,31.5,61Z" transform="translate(11.002 14)" fill="#e00909"/>
  </g>
</svg>
