<svg width="76" height="76" viewBox="0 0 76 76" fill="none" xmlns="http://www.w3.org/2000/svg">
<path d="M32.5576 50.1089L39.9669 45.5168L37.244 41.1253C38.6397 39.7181 39.8177 38.0819 40.7203 36.266L45.7615 37.4455L47.7435 28.9525L42.7045 27.7729C42.7001 25.7676 42.3767 23.7877 41.7378 21.8868L46.1422 19.1557L41.5462 11.7503L37.1435 14.4797C35.7248 13.0693 34.094 11.894 32.2972 11.0055L33.4785 5.96322L24.9884 3.9744L23.8121 9.00156C21.7577 9.00589 19.7725 9.34552 17.9129 9.96248L15.1901 5.57605L7.78333 10.1717L10.504 14.556C9.10837 15.9643 7.92919 17.599 7.02662 19.415L1.99117 18.2336L0.000183105 26.7267L5.04248 27.9102C5.04464 29.9156 5.36915 31.8954 6.00916 33.7931L1.60363 36.5235L6.19644 43.9349L10.6041 41.2038C12.021 42.6128 13.6497 43.7884 15.4451 44.6801L14.2638 49.7231L22.7546 51.7116L23.9338 46.679C25.9871 46.6747 27.9734 46.334 29.8329 45.7167L32.5576 50.1089ZM14.0196 25.5342C15.099 20.9316 19.1447 17.7161 23.86 17.7161C24.6361 17.7161 25.4184 17.8054 26.1837 17.9844C28.8173 18.5996 31.0492 20.2081 32.4744 22.5016C33.9006 24.7966 34.3458 27.5129 33.7281 30.1464C32.6487 34.7479 28.6008 37.9638 23.8855 37.9638C23.1097 37.9638 22.3293 37.8723 21.5618 37.6937C18.9304 37.0817 16.6985 35.4722 15.2711 33.1772C13.8452 30.8808 13.4022 28.1655 14.0196 25.5342ZM62.0283 55.7375L63.9484 54.5475L60.5059 48.987L58.5791 50.1795C58.0341 49.6983 57.4445 49.2722 56.806 48.902L57.3235 46.701L50.9558 45.2063L50.4451 47.3886C49.6999 47.4336 48.976 47.5524 48.2694 47.7401L47.0898 45.8413L41.5336 49.2902L42.6962 51.1591C42.2128 51.7123 41.7979 52.3253 41.423 52.9725L39.2519 52.4683L37.7576 58.8335L39.9546 59.3467C40.0014 60.0789 40.1163 60.7946 40.3061 61.5052L38.3926 62.6934L41.8411 68.2496L43.7529 67.0618C44.3065 67.5495 44.8982 67.9726 45.5325 68.3389L45.0171 70.5359L51.3848 72.0267L51.8933 69.8466C52.6385 69.7994 53.3624 69.6849 54.0691 69.4972L55.2483 71.3982L60.8049 67.9518L59.6423 66.0782C60.1299 65.525 60.5448 64.912 60.9151 64.2648L63.0865 64.7711L64.5808 58.4038L62.3817 57.8906C62.3327 57.1533 62.2178 56.4377 62.0283 55.7375ZM55.7971 59.7036C55.2072 62.2158 52.6486 63.838 50.0875 63.2415C48.8568 62.9498 47.8051 62.1985 47.1388 61.1212C46.4682 60.0483 46.2636 58.7751 46.5489 57.5362C47.0556 55.3756 48.9569 53.8618 51.164 53.8618C51.5303 53.8618 51.8919 53.909 52.2499 53.9896C54.8053 54.5987 56.3932 57.1533 55.7971 59.7036ZM72.0189 34.4544L75.0032 35.1516L75.9998 30.9078L73.0238 30.2116C73.045 29.0044 72.8469 27.8082 72.4403 26.6744L75.0421 25.0588L72.7407 21.3555L70.141 22.9684C69.3026 22.105 68.3186 21.3962 67.2287 20.8776L67.9271 17.9027L63.6822 16.9064L62.9882 19.8749C62.9367 19.8749 62.8816 19.8666 62.8286 19.8666C61.6426 19.8666 60.4994 20.069 59.433 20.4447L57.8382 17.8656L54.1321 20.1602L55.7453 22.7681C54.8942 23.5983 54.1829 24.5722 53.6614 25.6782L50.6745 24.9799L49.6826 29.2248L52.6544 29.9199C52.6331 31.1279 52.8308 32.3222 53.2375 33.4581L50.6403 35.0717L52.9418 38.7727L55.5367 37.1624C56.3777 38.0254 57.3592 38.7356 58.449 39.2539L57.755 42.2303L61.9956 43.2269L62.6936 40.2548C62.7469 40.2548 62.8002 40.2631 62.8513 40.2631C64.0348 40.2631 65.1762 40.0607 66.2448 39.6861L67.8435 42.2685L71.5453 39.9649L69.9318 37.3623C70.7843 36.5361 71.4931 35.559 72.0189 34.4544ZM57.1553 28.736C57.7813 26.0795 60.1101 24.2264 62.8311 24.2264C63.2803 24.2264 63.7316 24.2786 64.1724 24.3809C65.6923 24.7386 66.9781 25.6624 67.7996 26.9864C68.6215 28.3096 68.8812 29.8763 68.5235 31.3962C67.7996 34.4853 64.6446 36.4864 61.5072 35.7423C59.9913 35.3868 58.7015 34.4608 57.8796 33.1376C57.0574 31.8143 56.802 30.2509 57.1553 28.736Z" fill="#7D8196"/>
</svg>
