<svg id="Group_10249" data-name="Group 10249" xmlns="http://www.w3.org/2000/svg" width="90" height="90.003" viewBox="0 0 90 90.003">
  <path id="Path_8785" data-name="Path 8785" d="M22.881,46.762A4.881,4.881,0,1,0,18,41.881,4.881,4.881,0,0,0,22.881,46.762Zm0-6.508a1.627,1.627,0,1,1-1.627,1.627A1.627,1.627,0,0,1,22.881,40.254Z" transform="translate(8.746 17.978)" fill="#acacac"/>
  <path id="Path_8786" data-name="Path 8786" d="M87.3,37.789,81,35.268a37.1,37.1,0,0,0-3.664-8.826l2.681-6.254a4.008,4.008,0,0,0-.583-4.164,44.255,44.255,0,0,0-5.454-5.453,4,4,0,0,0-4.162-.579l-6.258,2.679a37.162,37.162,0,0,0-8.826-3.664L52.21,2.7A4.016,4.016,0,0,0,48.852.166a44.7,44.7,0,0,0-7.708,0A4.009,4.009,0,0,0,37.791,2.7L35.27,9a37.184,37.184,0,0,0-8.829,3.664L20.187,9.993a4,4,0,0,0-4.162.58c-.962.8-1.919,1.68-2.85,2.607s-1.812,1.891-2.607,2.85a4,4,0,0,0-.579,4.164l2.679,6.252A36.978,36.978,0,0,0,9,35.275L2.7,37.8A4.006,4.006,0,0,0,.168,41.146C.057,42.382,0,43.68,0,45s.057,2.618.168,3.854A4.006,4.006,0,0,0,2.7,52.21L9,54.73a36.978,36.978,0,0,0,3.666,8.829L9.995,69.811a4,4,0,0,0,.579,4.164c.8.952,1.671,1.909,2.607,2.85s1.886,1.809,2.85,2.607a4,4,0,0,0,4.164.582l6.252-2.679A37.123,37.123,0,0,0,35.27,81l2.521,6.3a4.01,4.01,0,0,0,3.355,2.537C42.385,89.947,43.683,90,45,90s2.615-.056,3.857-.167A4.014,4.014,0,0,0,52.21,87.3L54.732,81a37.1,37.1,0,0,0,8.826-3.665l6.254,2.681a4.014,4.014,0,0,0,4.164-.584c.96-.8,1.917-1.677,2.85-2.6s1.8-1.882,2.61-2.85a4.008,4.008,0,0,0,.579-4.162l-2.679-6.253A37.1,37.1,0,0,0,81,54.732l6.3-2.521a4.015,4.015,0,0,0,2.535-3.358C89.945,47.614,90,46.318,90,45s-.055-2.615-.167-3.856A4.014,4.014,0,0,0,87.3,37.79Zm-.45,10.792a1.031,1.031,0,0,1-.66.842l-7.01,2.8a1.5,1.5,0,0,0-.9,1.032,34.092,34.092,0,0,1-3.911,9.417,1.5,1.5,0,0,0-.094,1.365l2.975,6.951a1.033,1.033,0,0,1-.124,1.061Q76,73.4,74.7,74.7c-.865.864-1.753,1.68-2.643,2.422a1.033,1.033,0,0,1-1.062.128l-6.951-2.979a1.482,1.482,0,0,0-1.365.094,34.092,34.092,0,0,1-9.417,3.91,1.5,1.5,0,0,0-1.032.9l-2.8,7.008a1.031,1.031,0,0,1-.837.661,41.755,41.755,0,0,1-7.168,0,1.035,1.035,0,0,1-.842-.66l-2.8-7.01a1.5,1.5,0,0,0-1.031-.9,34.1,34.1,0,0,1-9.418-3.91,1.5,1.5,0,0,0-1.367-.095L19.007,77.25a1.035,1.035,0,0,1-1.061-.129c-.888-.74-1.778-1.555-2.644-2.423s-1.687-1.762-2.424-2.645a1.037,1.037,0,0,1-.128-1.062l2.979-6.951a1.5,1.5,0,0,0-.095-1.366,34.083,34.083,0,0,1-3.911-9.415,1.5,1.5,0,0,0-.9-1.032l-7.008-2.8a1.026,1.026,0,0,1-.66-.839,42.555,42.555,0,0,1-.006-7.17,1.026,1.026,0,0,1,.66-.839l7.01-2.8a1.5,1.5,0,0,0,.9-1.032,34.083,34.083,0,0,1,3.911-9.416,1.5,1.5,0,0,0,.094-1.366L12.75,19.008a1.036,1.036,0,0,1,.128-1.062c.736-.882,1.551-1.773,2.425-2.646s1.752-1.679,2.643-2.422a1.03,1.03,0,0,1,1.06-.127l6.951,2.979a1.5,1.5,0,0,0,1.366-.094,34.1,34.1,0,0,1,9.426-3.911,1.5,1.5,0,0,0,1.031-.9l2.8-7.009a1.035,1.035,0,0,1,.839-.66,41.736,41.736,0,0,1,7.167,0,1.032,1.032,0,0,1,.842.66l2.8,7.009a1.5,1.5,0,0,0,1.032.9,34.092,34.092,0,0,1,9.417,3.911,1.5,1.5,0,0,0,1.365.094l6.943-2.979a1.026,1.026,0,0,1,1.061.125Q73.4,14,74.7,15.3c.864.865,1.68,1.753,2.423,2.643a1.037,1.037,0,0,1,.128,1.062l-2.979,6.951a1.5,1.5,0,0,0,.094,1.365,34.092,34.092,0,0,1,3.91,9.417,1.5,1.5,0,0,0,.9,1.032l7.008,2.8a1.031,1.031,0,0,1,.661.837c.1,1.152.15,2.358.15,3.587s-.048,2.436-.146,3.583Z" transform="translate(0)" fill="#acacac"/>
  <path id="Path_8787" data-name="Path 8787" d="M39.354,9A30.31,30.31,0,0,0,16.516,59.288a1.346,1.346,0,0,0,.259.289,30.47,30.47,0,0,0,4.16,3.857,1.415,1.415,0,0,0,.523.392,30.146,30.146,0,0,0,17.9,5.889c.973,0,1.931-.056,2.881-.145h.026A30.358,30.358,0,0,0,39.354,9ZM19.118,57.861V53.813a7.227,7.227,0,1,1,14.454,0v7.228H22.56a27.682,27.682,0,0,1-3.442-3.18Zm12.8-32.96h13.42a5.193,5.193,0,0,0,0,2.891H31.922a5.193,5.193,0,0,0,0-2.891Zm19,18.793A2.891,2.891,0,0,1,48.027,40.8V37.912h5.782V40.8A2.891,2.891,0,0,1,50.918,43.694Zm-1.445-11.77a5.192,5.192,0,0,0,2.891,0v3.1H49.472Zm1.445-2.686a2.891,2.891,0,1,1,2.891-2.891A2.891,2.891,0,0,1,50.918,29.238Zm-24.573,0a2.891,2.891,0,1,1,2.891-2.891A2.891,2.891,0,0,1,26.345,29.238ZM24.9,31.924a5.192,5.192,0,0,0,2.891,0V43.809a9.148,9.148,0,0,0-2.891,0Zm2.264,32.008H39.354A1.446,1.446,0,0,1,40.8,65.378V66.75c-.481.026-.957.074-1.445.074a27.252,27.252,0,0,1-12.191-2.891Zm16.527,2.514V65.378a4.337,4.337,0,0,0-4.336-4.337H36.463V53.813a10.119,10.119,0,0,0-5.782-9.138V30.684h15.9v4.739a2.881,2.881,0,0,0-1.445,2.489V40.8a5.782,5.782,0,0,0,4.336,5.577v3.1a1.445,1.445,0,1,0,2.891,0v-3.1A5.782,5.782,0,0,0,56.7,40.8V37.912a2.881,2.881,0,0,0-1.445-2.489V30.132a5.753,5.753,0,0,0-8.121-8.121h-17a5.753,5.753,0,0,0-8.121,8.121V44.685a10.119,10.119,0,0,0-5.782,9.129v.3A27.453,27.453,0,1,1,43.691,66.447Z" transform="translate(5.643 5.642)" fill="#acacac"/>
</svg>
