<svg xmlns="http://www.w3.org/2000/svg" width="88.559" height="76.751" viewBox="0 0 88.559 76.751">
  <g id="Group_10277" data-name="Group 10277" transform="translate(-2 -3)">
    <g id="Electric_Motor-electronics" data-name="Electric Motor-electronics" transform="translate(2 3)">
      <path id="Path_9176" data-name="Path 9176" d="M83.179,25.14H50.707V22.188h4.428a1.476,1.476,0,0,0,1.476-1.476V8.9a1.476,1.476,0,0,0-1.476-1.476H52.183V4.476A1.476,1.476,0,0,0,50.707,3H44.8a1.476,1.476,0,0,0-1.476,1.476V7.428H40.375V4.476A1.476,1.476,0,0,0,38.9,3H33A1.476,1.476,0,0,0,31.52,4.476V7.428H28.568A1.476,1.476,0,0,0,27.092,8.9V20.712a1.476,1.476,0,0,0,1.476,1.476H33V25.14H18.236a4.428,4.428,0,0,0-4.428,4.428V39.9H3.476A1.476,1.476,0,0,0,2,41.375v8.856a1.476,1.476,0,0,0,1.476,1.476H13.808V63.515a4.428,4.428,0,0,0,4.428,4.428H30.044V70.9h-5.9a1.476,1.476,0,0,0-1.476,1.476v5.9a1.476,1.476,0,0,0,1.476,1.476H74.323A1.476,1.476,0,0,0,75.8,78.275v-5.9A1.476,1.476,0,0,0,74.323,70.9h-5.9V67.943h14.76a7.389,7.389,0,0,0,7.38-7.38V32.52A7.389,7.389,0,0,0,83.179,25.14ZM72.847,64.991H27.092v-36.9H72.847ZM46.279,5.952h2.952V7.428H46.279Zm-11.808,0h2.952V7.428H34.472ZM30.044,10.38H53.659v8.856H30.044Zm5.9,11.808H47.755V25.14H35.948Zm-31,26.568v-5.9h8.856v5.9ZM22.664,64.991H18.236a1.476,1.476,0,0,1-1.476-1.476V29.568a1.476,1.476,0,0,1,1.476-1.476h5.9v36.9ZM72.847,76.8H25.616V73.847H72.847Zm-7.38-5.9H33V67.943H65.467Zm22.14-10.332a4.428,4.428,0,0,1-4.428,4.428H75.8v-36.9h7.38a4.428,4.428,0,0,1,4.428,4.428Z" transform="translate(-2 -3)" fill="#acacac"/>
      <path id="Path_9177" data-name="Path 9177" d="M69.231,23.952h5.9V26.9h-5.9Zm0,5.9h5.9v2.952h-5.9ZM22,22.476V52a1.476,1.476,0,0,0,1.476,1.476H57.424A1.476,1.476,0,0,0,58.9,52V22.476A1.476,1.476,0,0,0,57.424,21H23.476A1.476,1.476,0,0,0,22,22.476Zm2.952,10.332h31v8.856h-31Zm0,11.808h31v1.476h-31Zm31-14.76h-31V28.38h31Zm-31,20.664V49.044h31V50.52Zm31-26.568v1.476h-31V23.952Z" transform="translate(7.52 5.568)" fill="#acacac"/>
    </g>
  </g>
</svg>
