<svg id="Group_10278" data-name="Group 10278" xmlns="http://www.w3.org/2000/svg" width="67.147" height="67.146" viewBox="0 0 67.147 67.146">
  <path id="Path_9178" data-name="Path 9178" d="M22.494,28.989a6.994,6.994,0,1,1,6.994-6.994A7,7,0,0,1,22.494,28.989Zm0-11.191a4.2,4.2,0,1,0,4.2,4.2A4.2,4.2,0,0,0,22.494,17.8Z" transform="translate(27.865 26.966)" fill="#acacac"/>
  <path id="Path_9179" data-name="Path 9179" d="M52.525,67.146H48.191a2.761,2.761,0,0,1-2.745-2.526L45.1,61.058a12.55,12.55,0,0,1-2.319-1.385l-3.136,1.458A2.722,2.722,0,0,1,36.1,59.97l-2.168-3.864a2.826,2.826,0,0,1,.769-3.645l2.8-2.07a11.893,11.893,0,0,1-.092-1.432,12.5,12.5,0,0,1,.092-1.432l-2.8-2.07a2.823,2.823,0,0,1-.767-3.645L36.1,37.946a2.728,2.728,0,0,1,3.545-1.161l3.139,1.458A12.551,12.551,0,0,1,45.1,36.858l.344-3.564a2.765,2.765,0,0,1,2.747-2.518h4.334A2.761,2.761,0,0,1,55.272,33.3l.344,3.562a12.707,12.707,0,0,1,2.319,1.385l3.136-1.458a2.725,2.725,0,0,1,3.545,1.161l2.168,3.864a2.826,2.826,0,0,1-.769,3.645l-2.8,2.07a11.894,11.894,0,0,1,.092,1.432,12.5,12.5,0,0,1-.092,1.432l2.8,2.07a2.822,2.822,0,0,1,.767,3.645L64.62,59.975a2.725,2.725,0,0,1-3.545,1.161l-3.139-1.458a12.551,12.551,0,0,1-2.319,1.385l-.344,3.564a2.764,2.764,0,0,1-2.747,2.518ZM42.982,56.64a1.4,1.4,0,0,1,.915.341,9.914,9.914,0,0,0,3.008,1.8,1.4,1.4,0,0,1,.9,1.175l.425,4.4,4.295-.006.386-4.392a1.4,1.4,0,0,1,.9-1.175,9.915,9.915,0,0,0,3.008-1.8,1.39,1.39,0,0,1,1.505-.21l3.925,1.824,2.09-3.855-3.466-2.6a1.4,1.4,0,0,1-.546-1.36,9.183,9.183,0,0,0,0-3.637,1.4,1.4,0,0,1,.546-1.36l3.475-2.574L62.177,39.32l-3.85,1.833a1.393,1.393,0,0,1-1.505-.213,9.938,9.938,0,0,0-3.008-1.8,1.4,1.4,0,0,1-.9-1.175l-.425-4.4-4.295.006-.386,4.392a1.4,1.4,0,0,1-.9,1.175,9.915,9.915,0,0,0-3.008,1.8,1.407,1.407,0,0,1-1.505.21l-3.925-1.824-2.09,3.855,3.466,2.6a1.4,1.4,0,0,1,.546,1.36,9.184,9.184,0,0,0,0,3.637,1.4,1.4,0,0,1-.546,1.36L36.371,54.71,38.542,58.6l3.85-1.833a1.421,1.421,0,0,1,.59-.129ZM9.792,67.146H4.2a4.2,4.2,0,0,1-4.2-4.2V46.163a4.2,4.2,0,0,1,4.2-4.2h5.6a4.2,4.2,0,0,1,4.2,4.2V62.949A4.2,4.2,0,0,1,9.792,67.146ZM4.2,44.764a1.4,1.4,0,0,0-1.4,1.4V62.949a1.4,1.4,0,0,0,1.4,1.4h5.6a1.4,1.4,0,0,0,1.4-1.4V46.163a1.4,1.4,0,0,0-1.4-1.4ZM26.579,67.146h-5.6a4.2,4.2,0,0,1-4.2-4.2V34.972a4.2,4.2,0,0,1,4.2-4.2h5.6a4.2,4.2,0,0,1,4.2,4.2V62.949A4.2,4.2,0,0,1,26.579,67.146Zm-5.6-33.573a1.4,1.4,0,0,0-1.4,1.4V62.949a1.4,1.4,0,0,0,1.4,1.4h5.6a1.4,1.4,0,0,0,1.4-1.4V34.972a1.4,1.4,0,0,0-1.4-1.4Zm13.989-2.8a1.4,1.4,0,0,1-1.4-1.4V18.185a4.2,4.2,0,0,1,4.2-4.2h5.6a4.2,4.2,0,0,1,4.2,4.2v5.6a1.4,1.4,0,1,1-2.8,0v-5.6a1.4,1.4,0,0,0-1.4-1.4h-5.6a1.4,1.4,0,0,0-1.4,1.4V29.376A1.4,1.4,0,0,1,34.972,30.775Zm27.978,0a1.4,1.4,0,0,1-1.4-1.4V4.2a1.4,1.4,0,0,0-1.4-1.4h-5.6a1.4,1.4,0,0,0-1.4,1.4V23.781a1.4,1.4,0,1,1-2.8,0V4.2a4.2,4.2,0,0,1,4.2-4.2h5.6a4.2,4.2,0,0,1,4.2,4.2v25.18A1.4,1.4,0,0,1,62.949,30.775Z" fill="#acacac"/>
</svg>
