<svg width="62" height="62" viewBox="0 0 62 62" fill="none" xmlns="http://www.w3.org/2000/svg">
<g clip-path="url(#clip0_3_283)">
<path d="M52.7 6.20004H39.7265C38.4555 2.604 35.0455 0 31 0C26.9545 0 23.5444 2.604 22.2735 6.20004H9.30002C5.87457 6.20004 3.09998 8.97449 3.09998 12.4001V55.8C3.09998 59.2254 5.87443 62 9.30002 62H52.7C56.1255 62 58.9001 59.2255 58.9001 55.8V12.3999C58.8999 8.97449 56.1255 6.20004 52.7 6.20004ZM31 6.20004C32.7049 6.20004 34.0999 7.57949 34.0999 9.29999C34.0999 11.0205 32.7049 12.3999 31 12.3999C29.295 12.3999 27.9 11.0205 27.9 9.29999C27.9 7.57949 29.295 6.20004 31 6.20004ZM24.8001 49.5999L12.4 37.2L16.7865 32.8134L24.8001 40.827L45.2135 20.4135L49.6001 24.8L24.8001 49.5999Z" fill="#7D8196"/>
</g>
<defs>
<clipPath id="clip0_3_283">
<rect width="62" height="62" fill="white"/>
</clipPath>
</defs>
</svg>
